P3
# best-tpg-representative-run-exotype
65 51
255
160 160 160 147 147 147 34 34 34 238 238 238 101 101 101 117 117 117 210 210 210 243 243 243 127 127 127 16 16 16 193 193 193 79 79 79 77 77 77 172 172 172 0 51 255 255 51 0 255 204 0 0 0 0 43 43 43 0 255 51 243 243 243 211 211 211 156 156 156 200 200 200 5 5 5 253 253 253 167 167 167 239 239 239 189 189 189 193 193 193 109 109 109 119 119 119 255 255 255 10 147 170 163 17 169 171 204 2 12 139 14 8 32 54 49 135 39 42 209 253 242 76 207 200 239 135 134 193 17 29 94 220 216 178 180 176 113 148 158 75 106 98 230 248 241 75 137 140 170 245 245 43 0 2 252 146 150 132 52 59 224 207 194 175 237 228 4 89 85 141 76 76 168 80 95 122 47 37 152 218 212 66 30 21 28 107 103 124 220 218 170 182 177 119 7
160 160 160 147 147 147 162 162 162 238 238 238 101 101 101 210 210 210 210 210 210 243 243 243 115 115 115 81 81 81 193 193 193 77 77 77 174 174 174 113 113 113 133 133 133 255 51 0 255 204 0 0 0 0 40 40 40 99 99 99 211 211 211 223 223 223 156 156 156 51 51 51 205 205 205 255 204 0 237 237 237 175 175 175 211 211 211 193 193 193 101 101 101 101 101 101 255 255 255 10 147 170 163 145 169 163 204 2 132 139 14 8 135 54 59 240 39 240 209 253 242 64 207 200 98 135 66 208 17 73 92 220 216 115 180 158 159 148 77 148 106 111 196 248 209 75 137 140 170 245 245 40 0 2 235 146 164 224 52 91 236 207 224 99 237 36 255 89 90 254 76 15 120 80 22 184 47 244 114 218 52 44 30 87 242 107 225 116 220 218 48 182 48 85 7
160 160 160 147 147 147 0 0 0 155 155 155 101 101 101 210 210 210 210 210 210 243 243 243 115 115 115 193 193 193 65 65 65 205 205 205 174 174 174 113 113 113 133 133 133 255 51 0 16 16 16 0 0 0 40 40 40 99 99 99 211 211 211 255 255 255 159 159 159 157 157 157 205 205 205 255 204 0 237 237 237 253 253 253 211 211 211 193 193 193 101 101 101 101 101 101 255 255 255 10 147 170 163 51 169 169 155 138 9 222 14 47 135 54 59 240 253 240 209 253 242 64 207 200 242 71 75 80 69 216 220 220 88 115 148 22 159 74 77 148 103 111 196 216 209 1 137 136 0 245 17 40 0 2 235 162 164 224 86 91 204 237 226 96 45 6 98 89 96 16 3 69 120 28 22 184 250 244 32 62 49 14 90 34 242 237 225 116 220 218 48 54 48 85 54
108 108 108 147 147 147 147 147 147 155 155 155 247 247 247 210 210 210 210 210 210 243 243 243 115 115 115 65 65 65 65 65 65 205 205 205 237 237 237 113 113 113 133 133 133 255 51 0 0 0 0 0 0 0 40 40 40 99 99 99 211 211 211 223 223 223 159 159 159 157 157 157 215 215 215 223 223 223 237 237 237 253 253 253 211 211 211 193 193 193 101 101 101 0 0 0 255 255 255 6 95 170 175 160 169 160 168 0 160 76 41 38 165 54 130 240 253 240 209 253 242 64 207 200 114 71 67 80 220 80 220 84 88 48 28 18 172 74 57 148 103 111 196 216 209 17 137 137 0 17 0 40 0 2 235 162 164 224 86 91 236 237 224 96 15 36 98 105 96 10 73 68 168 28 160 18 250 35 32 62 49 14 47 34 242 237 225 116 220 218 85 54 54 0 54
108 108 108 147 147 147 147 147 147 147 147 147 247 247 247 210 210 210 210 210 210 243 243 243 115 115 115 65 65 65 65 65 65 205 205 205 237 237 237 113 113 113 255 51 0 255 51 0 0 0 0 0 0 0 40 40 40 99 99 99 211 211 211 223 223 223 255 255 255 157 157 157 215 215 215 223 223 223 237 237 237 253 253 253 209 209 209 193 193 193 101 101 101 0 0 0 255 255 255 6 95 166 175 160 169 160 160 169 160 196 41 166 165 143 130 240 253 240 209 253 242 64 207 200 114 71 67 80 84 80 220 84 88 48 28 18 172 62 57 128 103 110 128 216 128 17 137 137 0 0 0 40 0 2 235 162 164 224 86 91 236 237 224 0 45 34 98 105 6 10 73 68 168 173 160 18 45 35 32 62 49 12 47 34 208 237 193 116 220 218 85 54 54 0 0
108 108 108 147 147 147 147 147 147 147 147 147 255 255 255 210 210 210 45 45 45 243 243 243 115 115 115 65 65 65 65 65 65 205 205 205 83 83 83 113 113 113 255 51 0 255 51 0 0 0 0 0 0 0 32 32 32 99 99 99 223 223 223 223 223 223 255 255 255 157 157 157 255 255 255 223 223 223 253 253 253 253 253 253 209 209 209 111 111 111 101 101 101 0 0 0 255 255 255 6 95 166 175 160 169 160 160 169 160 204 169 166 45 143 2 15 253 255 46 253 253 64 207 200 114 71 67 80 84 80 220 84 88 142 28 25 66 62 98 128 103 110 128 137 128 17 137 137 0 0 0 32 0 2 99 162 36 236 86 91 32 237 32 0 45 34 98 15 6 34 73 70 32 173 2 2 45 34 32 62 32 12 47 34 126 205 203 154 220 144 85 54 54 0 0
0 0 0 147 147 147 147 147 147 147 147 147 255 255 255 210 210 210 243 243 243 243 243 243 115 115 115 65 65 65 65 65 65 205 205 205 83 83 83 177 177 177 159 159 159 255 51 0 0 0 0 0 0 0 0 0 0 99 99 99 223 223 223 223 223 223 255 255 255 157 157 157 223 223 223 255 255 255 253 253 253 253 253 253 209 209 209 101 101 101 101 101 101 0 0 0 255 255 255 0 147 166 9 160 169 160 160 169 160 204 169 166 45 15 2 209 253 242 192 242 192 64 207 200 114 71 67 80 84 80 220 84 88 142 28 25 130 101 110 142 103 162 110 137 96 17 137 137 0 0 0 0 0 0 99 34 6 236 86 91 32 45 32 0 45 34 98 15 6 2 73 68 0 15 34 2 45 0 32 47 32 12 47 34 116 205 203 48 150 48 85 54 54 0 0
0 0 0 147 147 147 255 255 255 147 147 147 211 211 211 0 0 0 243 243 243 243 243 243 115 115 115 65 65 65 65 65 65 83 83 83 83 83 83 177 177 177 159 159 159 255 51 0 0 0 0 0 0 0 0 0 0 99 99 99 223 223 223 223 223 223 255 255 255 157 157 157 223 223 223 255 255 255 255 255 255 253 253 253 209 209 209 101 101 101 101 101 101 0 0 0 255 255 255 0 147 0 9 204 169 166 108 169 6 224 169 164 51 15 237 243 253 15 192 207 192 64 207 200 114 71 67 80 84 80 66 84 81 96 28 96 130 101 110 142 171 162 110 105 96 17 137 137 0 0 0 0 0 0 99 0 6 236 86 91 32 45 32 0 45 34 98 15 6 2 73 68 0 45 34 0 15 0 2 47 0 12 47 34 116 205 203 48 54 48 85 54 54 0 0
0 0 0 147 147 147 255 255 255 147 147 147 211 211 211 0 0 0 243 243 243 243 243 243 115 115 115 65 65 65 83 83 83 83 83 83 243 243 243 177 177 177 159 159 159 255 51 0 0 0 0 0 0 0 0 0 0 188 188 188 255 255 255 223 223 223 255 255 255 157 157 157 223 223 223 255 255 255 255 255 255 253 253 253 245 245 245 65 65 65 101 101 101 0 0 0 255 255 255 0 147 0 9 204 169 166 108 15 6 224 169 164 51 237 237 243 0 15 192 207 192 64 207 200 114 71 67 66 84 81 96 84 96 192 101 106 130 101 196 142 171 162 110 105 96 17 137 137 0 0 0 0 0 0 188 0 11 51 86 116 32 45 2 0 45 34 98 15 6 2 73 68 0 45 34 0 15 0 2 15 0 40 47 32 20 205 171 116 54 82 85 54 54 0 0
147 147 147 146 146 146 107 107 107 211 211 211 166 166 166 243 243 243 230 230 230 115 115 115 50 50 50 18 18 18 18 18 18 160 160 160 213 213 213 223 223 223 173 173 173 34 34 34 0 0 0 0 0 0 188 188 188 187 187 187 98 98 98 255 255 255 97 97 97 223 223 223 65 65 65 31 31 31 1 1 1 5 5 5 169 169 169 36 36 36 101 101 101 0 0 0 255 255 255 9 161 0 160 73 169 191 104 15 219 149 169 231 149 237 197 213 0 193 21 207 137 1 207 68 48 71 18 48 84 48 130 101 59 213 101 167 138 207 128 82 171 39 255 105 120 34 137 2 0 0 0 188 0 11 119 0 112 217 123 13 221 15 73 158 45 9 206 15 123 190 73 41 14 45 85 254 15 225 20 15 16 252 47 90 189 175 56 33 84 100 85 54 54 0 0
38 38 38 139 139 139 249 249 249 200 200 200 27 27 27 72 72 72 123 123 123 81 81 81 32 32 32 0 0 0 178 178 178 149 149 149 52 52 52 89 89 89 92 92 92 34 34 34 0 0 0 188 188 188 123 123 123 150 150 150 221 221 221 158 158 158 190 190 190 125 125 125 94 94 94 0 51 255 4 4 4 172 172 172 86 86 86 69 69 69 101 101 101 147 147 147 255 255 255 2 237 169 74 66 185 55 81 214 99 147 237 77 243 202 165 243 207 195 234 142 194 49 71 71 0 19 34 178 49 11 183 49 146 97 170 202 29 141 118 197 45 192 238 122 151 34 2 2 188 0 11 183 0 124 45 123 206 187 11 244 67 70 4 80 15 114 147 118 92 131 45 162 240 84 180 234 225 241 232 16 74 154 80 111 35 58 49 48 98 18 198 54 63 51 0
211 211 211 251 251 251 106 106 106 211 211 211 83 83 83 115 115 115 182 182 182 113 113 113 64 64 64 178 178 178 105 105 105 255 204 0 161 161 161 77 77 77 126 126 126 68 68 68 188 188 188 187 187 187 106 106 106 207 207 207 75 75 75 34 34 34 161 161 161 224 224 224 66 66 66 26 26 26 168 168 168 166 166 166 83 83 83 33 33 33 91 91 91 183 183 183 255 255 255 13 200 66 226 209 56 73 121 111 203 96 76 232 64 161 98 133 196 76 23 199 220 81 69 99 178 34 79 75 0 157 60 155 252 244 201 240 92 115 190 163 197 147 170 149 147 248 2 15 119 0 112 209 123 13 101 199 202 180 249 56 153 13 246 131 121 8 241 91 180 66 167 234 56 181 101 2 241 187 46 64 32 53 106 207 18 53 103 74 20 55 12 54 238 119 169
211 211 211 251 251 251 251 251 251 211 211 211 83 83 83 115 115 115 191 191 191 64 64 64 64 64 64 176 176 176 0 51 255 39 39 39 161 161 161 77 77 77 126 126 126 68 68 68 188 188 188 187 187 187 106 106 106 207 207 207 75 75 75 34 34 34 161 161 161 224 224 224 64 64 64 10 10 10 168 168 168 166 166 166 83 83 83 49 49 49 91 91 91 183 183 183 255 255 255 13 200 237 226 64 79 64 104 198 66 96 237 232 64 101 98 140 71 76 191 219 79 64 103 64 176 68 79 225 155 181 54 246 252 214 250 88 92 186 190 163 148 147 170 151 147 248 4 15 119 123 112 209 11 13 101 198 202 180 60 56 153 244 246 131 2 8 241 186 180 64 238 234 10 100 68 2 177 170 46 42 32 53 202 207 2 101 102 74 50 38 12 229 238 119 203
211 211 211 251 251 251 251 251 251 211 211 211 115 115 115 115 115 115 127 127 127 64 64 64 96 96 96 190 190 190 0 51 255 39 39 39 161 161 161 77 77 77 78 78 78 236 236 236 188 188 188 187 187 187 106 106 106 75 75 75 75 75 75 35 35 35 161 161 161 224 224 224 64 64 64 10 10 10 168 168 168 166 166 166 83 83 83 49 49 49 159 159 159 151 151 151 255 255 255 13 200 237 226 64 79 64 104 79 66 64 237 234 64 101 64 76 71 64 191 75 131 96 68 66 190 68 109 15 187 85 54 254 252 214 82 88 92 186 190 147 148 144 2 151 170 112 4 37 119 123 112 209 11 13 225 198 194 240 60 240 152 244 246 146 2 24 241 186 180 64 238 234 10 68 68 2 160 170 46 42 32 53 202 207 2 101 102 142 35 42 104 229 96 119 203
211 211 211 251 251 251 251 251 251 243 243 243 115 115 115 127 127 127 127 127 127 64 64 64 96 96 96 190 190 190 0 51 255 33 33 33 129 129 129 77 77 77 78 78 78 236 236 236 212 212 212 186 186 186 106 106 106 75 75 75 75 75 75 35 35 35 173 173 173 114 114 114 64 64 64 8 8 8 168 168 168 166 166 166 83 83 83 49 49 49 159 159 159 151 151 151 255 255 255 13 200 237 226 64 79 64 72 79 64 64 237 200 76 71 64 128 71 128 191 135 131 96 68 66 190 102 109 15 91 85 48 254 252 144 82 58 92 186 156 147 148 144 2 164 170 24 46 35 254 123 150 192 11 29 225 198 194 240 244 240 152 244 246 158 18 24 175 186 125 98 238 83 8 68 68 32 160 138 46 42 32 53 202 207 2 101 102 142 35 42 104 105 96 119 233
211 211 211 251 251 251 251 251 251 243 243 243 115 115 115 127 127 127 127 127 127 0 0 0 96 96 96 190 190 190 161 161 161 33 33 33 129 129 129 195 195 195 78 78 78 236 236 236 212 212 212 186 186 186 106 106 106 106 106 106 75 75 75 35 35 35 173 173 173 114 114 114 0 0 0 8 8 8 33 33 33 166 166 166 83 83 83 17 17 17 159 159 159 183 183 183 255 255 255 13 200 237 226 64 79 64 72 79 64 64 207 200 76 71 64 128 135 128 255 135 135 96 68 6 190 102 109 79 91 81 48 254 184 144 50 58 210 152 148 125 148 248 2 164 170 24 46 35 254 157 150 192 27 29 192 198 192 225 244 194 152 244 246 158 18 24 175 122 125 34 87 87 8 68 0 169 128 130 183 42 56 53 202 207 34 101 100 142 35 8 72 105 98 119 233
211 211 211 255 255 255 255 255 255 247 247 247 115 115 115 127 127 127 127 127 127 0 0 0 222 222 222 190 190 190 161 161 161 1 1 1 0 255 51 195 195 195 78 78 78 236 236 236 212 212 212 186 186 186 144 144 144 33 33 33 75 75 75 35 35 35 173 173 173 114 114 114 32 32 32 8 8 8 33 33 33 173 173 173 19 19 19 17 17 17 159 159 159 183 183 183 255 255 255 13 204 237 226 0 79 0 8 79 0 4 207 136 76 71 64 128 135 128 255 135 135 222 0 13 80 102 54 79 91 81 16 186 186 12 50 17 30 152 205 125 252 248 2 164 170 24 46 35 254 157 150 58 27 18 33 198 155 90 198 54 152 244 246 158 18 24 175 122 125 2 87 85 8 0 34 169 128 130 188 50 56 206 202 123 34 101 32 142 1 8 72 105 98 119 203
211 211 211 255 255 255 255 255 255 247 247 247 119 119 119 127 127 127 127 127 127 94 94 94 158 158 158 126 126 126 161 161 161 1 1 1 1 1 1 195 195 195 163 163 163 204 204 204 252 252 252 111 111 111 144 144 144 33 33 33 35 35 35 3 3 3 173 173 173 114 114 114 32 32 32 32 32 32 41 41 41 173 173 173 17 17 17 19 19 19 215 215 215 151 151 151 255 255 255 13 204 237 226 0 15 0 8 15 0 0 143 136 8 71 0 128 135 128 161 135 130 112 0 188 144 61 126 79 91 157 16 186 186 16 16 16 210 193 28 144 252 246 255 164 150 48 46 3 163 157 57 111 27 159 33 153 155 50 50 48 48 244 18 158 18 58 175 122 125 2 87 85 32 34 32 41 128 32 52 50 184 204 122 123 2 33 0 228 1 44 224 105 164 119 203
211 211 211 255 255 255 255 255 255 247 247 247 119 119 119 127 127 127 127 127 127 94 94 94 158 158 158 126 126 126 161 161 161 1 1 1 1 1 1 131 131 131 163 163 163 204 204 204 252 252 252 111 111 111 144 144 144 33 33 33 35 35 35 3 3 3 173 173 173 82 82 82 32 32 32 32 32 32 41 41 41 199 199 199 17 17 17 19 19 19 215 215 215 151 151 151 255 255 255 13 204 237 226 0 15 0 8 15 0 0 143 136 8 7 0 128 135 128 161 135 130 112 181 188 144 121 126 79 151 157 16 186 186 16 16 16 146 16 24 144 252 178 255 154 150 48 12 3 163 63 57 111 150 159 33 153 155 50 50 48 48 18 18 158 48 58 143 122 127 2 87 119 32 34 32 41 34 32 94 178 190 102 122 189 2 1 0 228 33 44 224 173 164 119 233
211 211 211 255 255 255 255 255 255 247 247 247 119 119 119 127 127 127 127 127 127 94 94 94 158 158 158 126 126 126 161 161 161 1 1 1 1 1 1 131 131 131 179 179 179 204 204 204 252 252 252 111 111 111 144 144 144 33 33 33 35 35 35 35 35 35 174 174 174 0 0 0 32 32 32 32 32 32 41 41 41 1 1 1 19 19 19 19 19 19 151 151 151 151 151 151 255 255 255 13 204 237 226 0 15 0 8 15 0 0 143 136 8 7 0 128 135 128 161 135 130 112 181 188 144 121 126 79 151 157 16 186 186 16 16 16 146 16 24 128 184 179 255 154 135 48 12 3 163 63 57 111 150 159 33 153 155 50 50 48 16 18 16 157 48 24 238 122 74 32 117 2 32 34 32 41 34 32 152 178 178 2 188 17 32 1 32 164 33 40 224 173 224 119 233
211 211 211 255 255 255 255 255 255 247 247 247 119 119 119 127 127 127 127 127 127 94 94 94 65 65 65 190 190 190 161 161 161 1 1 1 1 1 1 131 131 131 179 179 179 204 204 204 252 252 252 255 255 255 0 0 0 33 33 33 35 35 35 35 35 35 255 255 255 32 32 32 0 0 0 4 4 4 33 33 33 1 1 1 19 19 19 19 19 19 151 151 151 255 255 255 255 255 255 13 204 237 226 0 15 0 8 15 0 0 143 136 8 7 0 128 135 128 161 135 130 175 181 177 175 121 95 79 151 81 16 186 186 16 16 16 146 16 24 128 184 179 255 139 135 48 12 3 51 63 48 255 150 15 33 153 2 50 50 48 16 18 16 204 18 29 223 74 13 0 0 34 4 34 0 101 34 66 16 178 50 2 16 17 32 33 32 164 33 40 136 233 230 255 233
211 211 211 255 255 255 255 255 255 247 247 247 127 127 127 127 127 127 127 127 127 94 94 94 94 94 94 255 255 255 161 161 161 1 1 1 1 1 1 131 131 131 179 179 179 204 204 204 252 252 252 252 252 252 33 33 33 33 33 33 33 33 33 35 35 35 255 255 255 32 32 32 0 0 0 4 4 4 32 32 32 1 1 1 19 19 19 19 19 19 151 151 151 255 255 255 255 255 255 13 204 237 226 0 15 0 8 15 0 8 143 136 128 7 128 128 135 128 161 135 130 176 181 176 17 84 186 94 91 5 16 186 186 16 16 16 146 16 24 128 184 179 255 139 135 48 12 3 48 63 48 237 15 61 48 0 48 48 50 48 50 18 48 204 18 29 223 15 13 0 34 34 4 0 0 100 64 66 1 50 34 2 16 17 32 33 32 164 33 40 136 233 230 255 15
211 211 211 255 255 255 255 255 255 255 255 255 127 127 127 127 127 127 127 127 127 94 94 94 94 94 94 255 255 255 1 1 1 1 1 1 1 1 1 77 77 77 131 131 131 252 252 252 51 51 51 252 252 252 33 33 33 33 33 33 33 33 33 33 33 33 35 35 35 32 32 32 0 0 0 0 0 0 32 32 32 1 1 1 19 19 19 19 19 19 151 151 151 151 151 151 255 255 255 13 204 237 226 0 15 0 0 15 0 128 143 8 128 135 128 128 135 128 161 135 130 176 181 176 17 181 186 254 15 15 16 186 16 16 16 16 92 16 20 94 184 156 207 139 183 255 12 60 207 63 12 237 63 61 48 50 48 48 50 48 48 50 48 50 18 48 19 15 16 0 34 34 0 0 0 32 64 2 1 34 34 2 16 17 32 33 32 164 33 40 224 233 224 119 15
63 63 63 43 43 43 255 255 255 127 127 127 127 127 127 127 127 127 160 160 160 94 94 94 255 255 255 254 254 254 1 1 1 1 1 1 77 77 77 27 27 27 130 130 130 251 251 251 2 2 2 217 217 217 34 34 34 33 33 33 33 33 33 35 35 35 38 38 38 64 64 64 0 0 0 32 32 32 65 65 65 20 20 20 37 37 37 151 151 151 27 27 27 219 219 219 255 255 255 3 212 237 193 68 15 157 128 15 8 128 15 128 128 135 128 95 135 141 94 135 175 17 181 186 1 181 0 239 15 31 16 16 16 92 16 20 198 16 149 57 148 169 217 184 167 185 63 79 251 3 45 187 63 79 3 50 0 48 50 48 50 50 48 21 50 16 38 18 70 0 34 68 32 0 2 65 0 38 5 34 85 97 16 83 194 33 123 108 33 232 96 233 172 187 233
115 115 115 255 255 255 211 211 211 127 127 127 127 127 127 94 94 94 158 158 158 93 93 93 160 160 160 253 253 253 2 2 2 77 77 77 171 171 171 182 182 182 123 123 123 244 244 244 221 221 221 212 212 212 69 69 69 34 34 34 35 35 35 42 42 42 140 140 140 128 128 128 32 32 32 129 129 129 150 150 150 73 73 73 216 216 216 53 53 53 227 227 227 191 191 191 255 255 255 7 204 195 72 44 146 2 76 15 234 128 135 128 161 135 130 112 135 188 179 170 124 125 181 143 253 15 165 223 31 47 111 16 36 118 16 158 13 148 17 29 161 220 79 168 200 153 79 178 9 32 0 1 77 153 119 2 22 1 50 0 25 50 16 38 18 138 76 66 64 32 68 138 129 0 42 135 34 145 47 84 253 65 81 217 189 114 94 182 233 109 140 161 213 255 109
63 63 63 171 171 171 127 127 127 171 171 171 160 160 160 0 51 255 97 97 97 255 204 0 157 157 157 252 252 252 81 81 81 60 60 60 106 106 106 147 147 147 74 74 74 161 161 161 230 230 230 101 101 101 172 172 172 69 69 69 44 44 44 216 216 216 24 24 24 32 32 32 193 193 193 24 24 24 117 117 117 34 34 34 213 213 213 44 44 44 193 193 193 155 155 155 255 255 255 3 84 71 201 196 15 29 84 237 141 27 135 16 30 135 171 143 181 247 75 121 115 55 133 252 33 170 70 157 47 58 45 32 70 166 148 245 57 26 207 121 219 173 11 199 238 247 191 180 3 13 136 249 157 60 137 20 110 121 2 22 20 18 239 144 130 92 168 72 147 193 136 46 9 34 221 253 152 150 119 249 37 247 212 15 121 93 143 13 99 238 138 222 213 187 75
243 243 243 127 127 127 83 83 83 54 54 54 94 94 94 157 157 157 220 220 220 57 57 57 130 130 130 233 233 233 190 190 190 186 186 186 101 101 101 108 108 108 53 53 53 136 136 136 173 173 173 46 46 46 149 149 149 174 174 174 40 40 40 168 168 168 80 80 80 1 1 1 154 154 154 149 149 149 236 236 236 25 25 25 210 210 210 25 25 25 156 156 156 89 89 89 255 255 255 15 76 195 200 172 26 130 5 135 102 56 26 86 115 170 188 1 241 68 245 118 30 27 245 171 203 73 166 39 63 117 84 69 80 207 243 29 57 198 48 249 169 165 221 228 107 37 186 2 243 142 120 123 54 203 251 106 195 198 20 72 32 226 168 216 93 47 1 145 85 139 34 25 63 220 48 185 145 199 213 39 47 75 2 140 59 141 252 5 226 136 149 220 92 153 41
161 161 161 171 171 171 0 255 51 162 162 162 41 41 41 94 94 94 193 193 193 244 244 244 109 109 109 104 104 104 212 212 212 153 153 153 178 178 178 197 197 197 242 242 242 53 53 53 84 84 84 233 233 233 80 80 80 92 92 92 168 168 168 160 160 160 161 161 161 156 156 156 57 57 57 18 18 18 233 233 233 244 244 244 157 157 157 166 166 166 97 97 97 68 68 68 255 255 255 10 186 207 176 3 135 17 42 101 49 11 83 136 199 181 183 47 73 185 229 29 211 41 163 185 181 168 176 92 126 235 221 91 148 43 27 2 231 54 151 167 166 147 23 99 220 1 8 102 173 122 27 201 194 123 92 201 80 100 74 159 40 162 32 161 42 160 141 85 179 245 16 90 139 57 162 203 201 63 109 46 113 217 129 182 123 253 67 7 129 204 85 89 114 68 197
76 76 76 198 198 198 210 210 210 45 45 45 168 168 168 61 61 61 255 51 0 177 177 177 122 122 122 36 36 36 177 177 177 196 196 196 41 41 41 60 60 60 233 233 233 154 154 154 81 81 81 162 162 162 108 108 108 88 88 88 80 80 80 161 161 161 222 222 222 89 89 89 100 100 100 13 13 13 230 230 230 113 113 113 216 216 216 141 141 141 198 198 198 41 41 41 255 255 255 4 10 186 136 180 26 161 15 59 255 117 138 248 181 178 41 171 181 228 215 220 28 107 191 172 142 182 213 245 230 105 213 157 167 109 9 142 165 155 177 37 156 253 3 223 119 251 99 60 179 21 79 78 126 140 148 85 163 216 149 208 161 42 95 207 170 183 183 186 56 253 89 195 73 163 38 59 49 222 23 126 137 201 191 106 5 73 85 27 202 84 79 118 174 153 4
130 130 130 198 198 198 210 210 210 45 45 45 194 194 194 60 60 60 199 199 199 114 114 114 48 48 48 36 36 36 177 177 177 103 103 103 41 41 41 60 60 60 233 233 233 154 154 154 32 32 32 162 162 162 150 150 150 88 88 88 80 80 80 33 33 33 222 222 222 89 89 89 25 25 25 100 100 100 230 230 230 240 240 240 216 216 216 141 141 141 141 141 141 0 0 0 255 255 255 8 228 132 164 180 172 161 15 253 255 31 242 254 30 42 239 11 227 255 5 23 187 18 171 84 36 215 49 245 98 105 118 171 173 94 140 20 165 178 177 37 243 253 3 126 119 138 57 59 162 69 40 180 138 131 62 166 252 216 213 208 33 85 87 207 186 63 183 61 56 128 197 196 253 38 135 162 208 40 150 142 129 216 103 242 5 93 85 80 88 80 221 172 88 0 178
130 130 130 194 194 194 198 198 198 194 194 194 44 44 44 254 254 254 255 51 0 114 114 114 48 48 48 36 36 36 177 177 177 103 103 103 41 41 41 21 21 21 79 79 79 154 154 154 69 69 69 162 162 162 146 146 146 64 64 64 33 33 33 33 33 33 89 89 89 159 159 159 89 89 89 100 100 100 31 31 31 240 240 240 216 216 216 141 141 141 141 141 141 0 0 0 255 255 255 8 224 168 164 228 172 224 164 253 160 14 242 238 50 236 237 152 243 24 20 188 16 18 87 84 36 51 49 245 98 105 118 171 173 94 22 20 140 178 179 26 243 69 101 126 189 239 57 61 247 34 30 176 138 131 98 249 189 33 213 70 48 85 48 72 50 55 6 61 204 166 197 108 253 129 195 91 38 39 15 142 238 216 255 242 5 93 85 80 88 80 221 88 88 0 0
130 130 130 194 194 194 198 198 198 251 251 251 44 44 44 254 254 254 255 51 0 114 114 114 48 48 48 0 0 0 37 37 37 103 103 103 41 41 41 13 13 13 31 31 31 42 42 42 69 69 69 162 162 162 146 146 146 33 33 33 33 33 33 1 1 1 191 191 191 159 159 159 0 255 51 100 100 100 116 116 116 224 224 224 216 216 216 141 141 141 141 141 141 0 0 0 255 255 255 8 224 168 164 228 236 224 157 172 163 151 236 77 50 226 237 152 31 24 20 23 16 18 87 84 0 51 51 37 98 2 50 171 116 94 22 20 148 178 178 194 65 209 213 180 227 239 57 134 247 20 30 176 138 131 3 185 187 48 68 48 16 50 50 174 50 27 96 197 66 29 105 103 70 197 200 48 38 33 164 225 57 216 255 227 5 93 85 80 88 80 221 88 88 0 0
130 130 130 194 194 194 198 198 198 238 238 238 5 5 5 219 219 219 255 51 0 114 114 114 48 48 48 0 0 0 37 37 37 111 111 111 41 41 41 13 13 13 15 15 15 15 15 15 69 69 69 40 40 40 146 146 146 33 33 33 1 1 1 1 1 1 191 191 191 159 159 159 0 255 51 100 100 100 116 116 116 224 224 224 200 200 200 250 250 250 141 141 141 0 0 0 255 255 255 8 224 168 164 228 236 224 136 172 162 235 79 14 142 226 93 205 31 106 20 23 16 18 87 84 0 51 51 37 0 2 58 114 116 214 22 148 148 178 178 210 208 208 240 225 240 186 130 244 125 20 22 26 138 171 3 185 187 16 50 50 16 50 16 174 16 27 96 75 66 29 105 103 70 206 200 48 38 33 164 55 57 200 238 226 114 93 67 39 88 87 221 88 88 0 0
61 61 61 194 194 194 198 198 198 238 238 238 5 5 5 115 115 115 255 51 0 66 66 66 48 48 48 32 32 32 0 0 0 103 103 103 41 41 41 13 13 13 15 15 15 15 15 15 69 69 69 40 40 40 146 146 146 33 33 33 1 1 1 1 1 1 254 254 254 159 159 159 0 255 51 100 100 100 144 144 144 224 224 224 200 200 200 119 119 119 114 114 114 0 0 0 255 255 255 3 31 168 239 228 236 224 136 172 162 235 14 14 38 80 87 69 109 64 36 23 19 18 87 103 32 51 49 0 0 34 103 114 6 94 150 20 148 178 178 210 208 208 240 240 240 186 240 244 125 20 22 26 162 171 3 185 187 16 50 50 16 16 16 239 16 31 113 75 22 29 105 103 70 206 200 212 38 47 224 55 151 200 238 226 255 76 75 5 95 0 34 88 87 0 0
61 61 61 198 198 198 198 198 198 238 238 238 103 103 103 119 119 119 48 48 48 66 66 66 48 48 48 32 32 32 32 32 32 78 78 78 41 41 41 13 13 13 15 15 15 15 15 15 40 40 40 40 40 40 0 0 0 33 33 33 1 1 1 1 1 1 159 159 159 0 255 51 130 130 130 100 100 100 144 144 144 224 224 224 200 200 200 114 114 114 114 114 114 0 0 0 255 255 255 3 27 227 239 160 236 160 136 172 162 137 14 8 0 80 17 71 71 4 66 23 55 18 100 103 32 51 49 32 34 32 78 0 38 199 22 166 148 178 178 210 208 208 240 240 240 215 240 242 160 20 160 136 162 162 33 185 2 16 50 50 16 16 16 142 16 25 226 31 104 95 105 201 70 206 174 212 38 47 224 153 151 200 238 226 250 76 75 80 7 80 34 87 87 0 0
0 0 0 198 198 198 198 198 198 238 238 238 255 51 0 119 119 119 0 0 0 66 66 66 48 48 48 32 32 32 32 32 32 33 33 33 41 41 41 13 13 13 15 15 15 15 15 15 40 40 40 40 40 40 0 0 0 32 32 32 1 1 1 1 1 1 159 159 159 0 255 51 4 4 4 100 100 100 27 27 27 192 192 192 224 224 224 50 50 50 114 114 114 0 0 0 255 255 255 0 198 227 12 160 172 160 136 172 162 152 14 9 17 22 16 119 7 7 66 51 4 18 100 103 32 51 49 32 34 32 33 34 32 56 164 48 148 178 178 210 208 208 240 240 240 215 240 242 160 162 160 136 162 162 32 0 2 1 50 34 16 16 16 142 16 25 226 105 104 217 193 193 32 168 70 95 38 39 123 153 173 224 238 194 50 76 237 80 87 20 34 87 87 0 0
0 0 0 198 198 198 198 198 198 153 153 153 255 51 0 255 51 0 66 66 66 48 48 48 48 48 48 32 32 32 0 0 0 33 33 33 41 41 41 13 13 13 15 15 15 15 15 15 7 7 7 40 40 40 0 0 0 32 32 32 1 1 1 1 1 1 159 159 159 0 255 51 0 0 0 123 123 123 128 128 128 192 192 192 224 224 224 50 50 50 50 50 50 0 0 0 255 255 255 0 198 0 12 160 172 160 255 172 165 239 14 14 16 23 16 36 7 19 18 0 103 48 100 48 32 51 49 0 34 34 33 34 2 56 50 48 148 178 178 210 208 208 240 240 240 248 240 240 95 162 114 136 162 162 32 0 2 1 34 34 16 16 16 142 16 25 226 105 104 221 193 193 123 64 7 59 38 207 192 161 132 224 204 194 50 238 237 16 19 16 34 87 19 0 0
198 198 198 140 140 140 37 37 37 152 152 152 102 102 102 52 52 52 114 114 114 48 48 48 16 16 16 32 32 32 33 33 33 41 41 41 44 44 44 6 6 6 2 2 2 8 8 8 47 47 47 40 40 40 32 32 32 33 33 33 1 1 1 158 158 158 61 61 61 0 255 51 123 123 123 251 251 251 64 64 64 32 32 32 210 210 210 18 18 18 50 50 50 0 0 0 255 255 255 12 234 0 164 233 172 74 205 172 123 238 9 31 82 23 5 54 23 116 18 100 84 16 51 50 32 51 19 33 34 32 56 0 48 181 50 176 202 178 226 100 208 96 42 240 32 167 240 130 215 112 208 168 162 160 33 0 32 16 34 50 143 16 25 211 16 122 192 105 226 166 193 198 64 0 200 251 199 75 32 136 70 210 204 47 48 238 252 16 19 50 34 19 19 0 0
148 148 148 53 53 53 189 189 189 150 150 150 255 51 0 86 86 86 66 66 66 32 32 32 48 48 48 33 33 33 9 9 9 13 13 13 46 46 46 6 6 6 10 10 10 47 47 47 39 39 39 8 8 8 1 1 1 33 33 33 159 159 159 93 93 93 33 33 33 102 102 102 0 255 51 182 182 182 96 96 96 242 242 242 164 164 164 32 32 32 50 50 50 198 198 198 255 255 255 9 113 172 218 232 72 104 75 114 98 16 25 254 48 6 18 36 115 49 2 87 102 48 51 33 33 17 49 24 34 50 148 50 144 243 178 210 232 226 194 108 96 96 133 32 162 216 128 208 127 210 82 137 162 128 48 34 18 142 50 59 162 16 108 252 121 135 119 227 52 132 193 8 148 199 197 6 79 221 242 68 105 134 34 213 100 253 232 50 49 33 228 19 31 102 0
177 177 177 222 222 222 104 104 104 0 255 51 214 214 214 20 20 20 98 98 98 80 80 80 65 65 65 74 74 74 12 12 12 39 39 39 88 88 88 12 12 12 45 45 45 92 92 92 86 86 86 9 9 9 33 33 33 223 223 223 222 222 222 124 124 124 136 136 136 44 44 44 182 182 182 140 140 140 50 50 50 200 200 200 40 40 40 50 50 50 40 40 40 214 214 214 255 255 255 11 207 217 166 134 99 59 106 107 232 244 249 195 114 23 188 38 53 87 114 100 67 65 34 81 91 51 80 166 50 228 235 144 194 47 208 87 132 194 213 225 96 194 129 160 247 154 210 144 111 82 53 184 128 146 206 16 63 33 50 32 146 105 58 68 133 191 164 50 10 122 6 233 234 206 211 254 219 75 234 102 31 160 223 78 186 234 161 10 34 17 94 19 175 102 172
177 177 177 250 250 250 146 146 146 0 255 51 214 214 214 22 22 22 98 98 98 80 80 80 64 64 64 74 74 74 14 14 14 47 47 47 88 88 88 12 12 12 44 44 44 92 92 92 86 86 86 9 9 9 9 9 9 223 223 223 222 222 222 248 248 248 136 136 136 44 44 44 182 182 182 0 51 255 50 50 50 15 15 15 40 40 40 50 50 50 40 40 40 214 214 214 255 255 255 11 235 171 164 56 61 86 192 230 183 244 206 195 112 189 188 4 81 119 114 70 67 64 85 81 74 84 64 164 228 228 193 192 226 167 82 215 132 213 213 224 192 194 144 242 231 154 149 144 111 53 53 144 144 144 70 50 157 33 45 32 22 61 50 0 183 119 164 8 10 122 226 233 225 219 211 69 72 251 45 19 19 215 76 242 186 162 161 10 19 17 94 162 175 102 189
177 177 177 250 250 250 148 148 148 0 51 255 214 214 214 22 22 22 98 98 98 80 80 80 64 64 64 74 74 74 14 14 14 47 47 47 50 50 50 12 12 12 12 12 12 92 92 92 92 92 92 9 9 9 9 9 9 223 223 223 222 222 222 248 248 248 136 136 136 172 172 172 182 182 182 0 51 255 50 50 50 35 35 35 40 40 40 48 48 48 40 40 40 0 0 0 255 255 255 11 235 171 164 62 95 86 90 185 216 56 206 252 112 189 188 4 113 119 114 70 67 64 85 81 74 68 64 164 228 228 193 224 226 205 210 209 46 213 19 192 192 192 144 226 197 144 149 144 197 53 149 144 144 144 70 144 157 33 45 32 22 61 50 0 127 119 36 8 2 122 226 97 225 219 211 69 248 251 1 19 17 27 240 16 184 162 161 40 19 49 136 162 162 0 189
177 177 177 127 127 127 150 150 150 0 51 255 214 214 214 86 86 86 98 98 98 16 16 16 64 64 64 74 74 74 14 14 14 46 46 46 50 50 50 12 12 12 12 12 12 92 92 92 92 92 92 9 9 9 9 9 9 223 223 223 222 222 222 248 248 248 136 136 136 205 205 205 182 182 182 0 51 255 35 35 35 35 35 35 40 40 40 16 16 16 24 24 24 0 0 0 255 255 255 11 110 171 172 105 95 142 120 217 248 56 241 252 48 189 184 4 113 51 50 70 71 64 85 21 74 68 64 164 228 228 192 224 226 220 210 193 46 19 19 192 192 192 144 192 197 144 149 144 197 149 149 144 144 144 70 144 157 33 45 32 22 61 50 0 127 119 69 8 4 107 106 23 225 219 211 84 248 250 16 19 16 27 18 16 152 162 163 24 51 16 136 162 145 0 0
177 177 177 255 255 255 150 150 150 0 51 255 86 86 86 86 86 86 98 98 98 16 16 16 64 64 64 76 76 76 14 14 14 46 46 46 50 50 50 12 12 12 12 12 12 88 88 88 92 92 92 9 9 9 9 9 9 223 223 223 222 222 222 216 216 216 136 136 136 205 205 205 7 7 7 167 167 167 35 35 35 35 35 35 40 40 40 16 16 16 24 24 24 0 0 0 255 255 255 11 238 171 164 105 135 6 120 249 248 184 241 244 48 189 48 4 53 51 50 70 71 64 17 21 76 68 64 194 228 132 192 224 226 220 194 193 46 19 19 192 192 192 148 192 197 212 149 208 197 149 149 144 144 144 70 144 157 33 45 32 54 61 48 0 127 85 69 8 4 218 28 28 208 219 122 84 248 216 16 18 16 27 18 16 152 162 163 24 17 16 136 145 145 0 0
177 177 177 183 183 183 150 150 150 22 22 22 64 64 64 86 86 86 98 98 98 16 16 16 64 64 64 76 76 76 14 14 14 12 12 12 50 50 50 12 12 12 12 12 12 88 88 88 0 0 0 9 9 9 9 9 9 223 223 223 222 222 222 39 39 39 136 136 136 205 205 205 7 7 7 223 223 223 35 35 35 35 35 35 11 11 11 16 16 16 16 16 16 0 0 0 255 255 255 11 166 171 160 225 15 194 112 249 248 38 241 117 86 53 65 4 53 51 50 70 71 64 17 21 76 68 64 194 132 132 226 224 224 254 194 195 46 19 19 192 192 192 148 192 197 136 213 213 9 149 0 144 144 144 70 144 157 33 45 32 201 61 63 255 93 90 69 8 4 218 28 28 168 112 125 220 218 47 16 18 16 56 18 18 171 162 177 16 17 16 0 145 17 0 0
177 177 177 183 183 183 150 150 150 22 22 22 0 0 0 66 66 66 98 98 98 16 16 16 12 12 12 76 76 76 12 12 12 2 2 2 50 50 50 12 12 12 12 12 12 88 88 88 0 0 0 9 9 9 9 9 9 223 223 223 223 223 223 39 39 39 136 136 136 205 205 205 207 207 207 223 223 223 3 3 3 35 35 35 11 11 11 16 16 16 16 16 16 0 0 0 255 255 255 11 166 171 160 225 203 194 112 249 248 102 113 113 66 68 4 64 53 98 50 70 71 12 17 17 128 68 196 192 132 132 206 224 192 16 192 35 46 19 19 192 192 192 148 192 197 136 213 213 9 0 0 144 144 144 70 144 157 32 45 32 216 61 47 255 82 90 69 8 4 18 28 16 32 112 49 252 45 45 16 18 50 56 18 18 171 176 177 16 17 16 0 17 17 0 0
249 249 249 183 183 183 150 150 150 22 22 22 0 0 0 66 66 66 114 114 114 0 0 0 12 12 12 76 76 76 12 12 12 2 2 2 2 2 2 12 12 12 12 12 12 88 88 88 0 0 0 9 9 9 9 9 9 223 223 223 223 223 223 39 39 39 136 136 136 205 205 205 207 207 207 223 223 223 3 3 3 35 35 35 3 3 3 16 16 16 16 16 16 0 0 0 255 255 255 15 46 171 100 225 203 194 112 249 248 102 113 113 66 0 4 80 100 99 34 70 87 12 17 0 128 192 196 192 132 132 206 192 192 32 32 32 46 19 32 192 192 192 148 192 197 136 213 213 9 0 0 144 144 144 70 144 157 32 45 32 216 45 47 255 82 90 69 8 4 18 28 16 32 60 49 252 45 45 16 48 50 48 18 18 35 176 49 16 17 16 0 17 17 0 0
177 177 177 183 183 183 150 150 150 22 22 22 0 0 0 66 66 66 114 114 114 0 0 0 12 12 12 0 0 0 12 12 12 2 2 2 2 2 2 12 12 12 12 12 12 88 88 88 0 0 0 9 9 9 9 9 9 223 223 223 223 223 223 175 175 175 136 136 136 205 205 205 207 207 207 223 223 223 3 3 3 35 35 35 3 3 3 16 16 16 16 16 16 0 0 0 255 255 255 11 166 111 160 225 203 194 112 249 248 102 113 113 66 0 4 80 100 99 34 87 87 12 0 0 204 192 192 12 132 0 206 192 192 32 32 32 46 32 32 192 192 192 148 192 197 136 213 213 9 0 0 144 144 144 70 144 157 32 45 32 80 45 39 119 82 82 69 8 4 18 28 16 32 60 49 252 45 45 16 48 50 48 18 18 35 48 49 16 17 16 0 17 17 0 0
177 177 177 183 183 183 150 150 150 22 22 22 2 2 2 66 66 66 114 114 114 0 0 0 12 12 12 12 12 12 12 12 12 2 2 2 2 2 2 12 12 12 12 12 12 88 88 88 0 0 0 9 9 9 9 9 9 223 223 223 223 223 223 255 255 255 136 136 136 205 205 205 207 207 207 223 223 223 3 3 3 35 35 35 3 3 3 16 16 16 16 16 16 0 0 0 255 255 255 11 166 171 160 225 203 194 112 249 248 100 113 113 96 0 36 80 100 99 34 87 87 12 0 0 192 192 192 192 0 192 206 192 192 32 32 32 46 32 32 192 192 192 148 192 197 136 213 213 9 0 0 144 144 144 70 144 157 32 45 32 0 45 34 119 90 7 69 8 4 18 28 16 32 60 49 252 45 45 16 48 50 48 18 18 35 48 49 16 17 16 0 17 17 0 0
177 177 177 183 183 183 150 150 150 22 22 22 2 2 2 66 66 66 114 114 114 0 0 0 12 12 12 12 12 12 12 12 12 2 2 2 2 2 2 12 12 12 12 12 12 88 88 88 8 8 8 9 9 9 9 9 9 223 223 223 223 223 223 255 255 255 136 136 136 205 205 205 207 207 207 207 207 207 3 3 3 3 3 3 3 3 3 16 16 16 16 16 16 0 0 0 255 255 255 11 166 171 160 225 203 194 112 249 248 100 113 113 96 32 36 80 100 99 34 87 87 12 0 0 192 192 192 192 192 192 206 192 192 32 32 32 46 32 32 192 192 192 148 192 197 128 213 213 129 0 128 144 144 144 70 144 157 32 45 32 0 45 34 119 15 7 69 8 4 18 28 16 48 60 48 252 45 60 48 48 48 48 18 48 35 48 49 16 17 16 0 17 17 0 0
177 177 177 255 255 255 200 200 200 22 22 22 2 2 2 66 66 66 114 114 114 0 0 0 12 12 12 12 12 12 12 12 12 2 2 2 2 2 2 12 12 12 12 12 12 88 88 88 8 8 8 9 9 9 9 9 9 223 223 223 255 255 255 223 223 223 136 136 136 205 205 205 207 207 207 207 207 207 3 3 3 3 3 3 3 3 3 16 16 16 16 16 16 0 0 0 255 255 255 11 238 171 164 55 203 3 158 249 77 100 113 113 96 32 36 80 100 99 34 87 87 12 0 0 192 192 192 192 192 192 206 192 192 32 32 32 46 32 32 192 192 192 148 192 197 128 213 213 129 128 128 144 144 144 70 144 157 0 45 34 32 45 2 119 15 37 69 8 4 18 28 16 48 60 48 252 60 60 48 48 48 48 48 48 35 48 49 16 17 16 0 17 17 0 0
